<?xml version="1.0" encoding="UTF-8"?>
<svg width="200px" height="200px" viewBox="0 0 200 200" version="1.1" xmlns="http://www.w3.org/2000/svg">
    <title>Pet Placeholder</title>
    <g stroke="none" stroke-width="1" fill="none" fill-rule="evenodd">
        <rect fill="#F5F5F5" x="0" y="0" width="200" height="200"/>
        <g transform="translate(60, 60)" fill="#CCCCCC">
            <path d="M40,0 C17.90861,0 0,17.90861 0,40 C0,62.09139 17.90861,80 40,80 C62.09139,80 80,62.09139 80,40 C80,17.90861 62.09139,0 40,0 Z M40,20 C51.045695,20 60,28.954305 60,40 C60,51.045695 51.045695,60 40,60 C28.954305,60 20,51.045695 20,40 C20,28.954305 28.954305,20 40,20 Z"/>
            <circle cx="25" cy="35" r="5"/>
            <circle cx="55" cy="35" r="5"/>
            <path d="M30,50 C30,50 35,55 40,55 C45,55 50,50 50,50"/>
        </g>
    </g>
</svg> 